<svg width="45" height="30" viewBox="0 0 45 30" fill="none" xmlns="http://www.w3.org/2000/svg">
<path d="M0 0.00427246H44.9994V29.9943H0V0.00427246Z" fill="white"/>
<path d="M20.5999 0.00427246V12.63H0V17.9757H20.5999V29.9957H24.7722V17.9757H44.9994V12.63H24.7722V0.00427246H20.5999Z" fill="#BD0034"/>
<path d="M19.2078 0.00427246H3.51562L19.2078 10.0857V0.00427246Z" fill="#1A237B"/>
<path d="M0 10.8487H11.06L0 3.72437V10.8487Z" fill="#1A237B"/>
<path d="M0 0V1.75429L13.2734 10.1729H16.5331C16.5331 10.1729 3.45089 1.94143 0.34312 0H0Z" fill="#BD0034"/>
<path d="M19.2078 29.9957H3.51562L19.2078 19.9143V29.9957Z" fill="#1A237B"/>
<path d="M0 19.1514H11.06L0 26.2757V19.1514Z" fill="#1A237B"/>
<path d="M0 30V28.2457L13.2734 19.8271H16.5331C16.5331 19.8271 3.45089 28.0586 0.34312 30H0Z" fill="#BD0034"/>
<path d="M25.791 0.00427246H41.4832L25.791 10.0857V0.00427246Z" fill="#1A237B"/>
<path d="M45.0004 10.8487H33.9404L45.0004 3.72437V10.8487Z" fill="#1A237B"/>
<path d="M44.9989 0V1.75429L31.7255 10.1729H28.4658C28.4658 10.1729 41.5438 1.94143 44.6558 0.0042854L44.9989 0Z" fill="#BD0034"/>
<path d="M25.791 29.9957H41.4832L25.791 19.9143V29.9957Z" fill="#1A237B"/>
<path d="M45.0004 19.1514H33.9404L45.0004 26.2757V19.1514Z" fill="#1A237B"/>
<path d="M44.9989 30V28.2457L31.7255 19.8271H28.4658C28.4658 19.8271 41.5438 28.0586 44.6558 29.9957L44.9989 30Z" fill="#BD0034"/>
</svg>
